<svg width="20" height="20" viewBox="0 0 20 20" fill="none" xmlns="http://www.w3.org/2000/svg">
<path d="M1.66666 10C1.66666 14.6025 5.3975 18.3334 10 18.3334C14.6025 18.3334 18.3333 14.6025 18.3333 10C18.3333 5.39752 14.6025 1.66669 10 1.66669C5.3975 1.66669 1.66666 5.39752 1.66666 10Z" stroke="#838383" stroke-width="1.5" stroke-linecap="round" stroke-linejoin="round"/>
<path d="M10.8333 1.70837C10.8333 1.70837 13.3333 5.00004 13.3333 10C13.3333 15 10.8333 18.2917 10.8333 18.2917" stroke="#838383" stroke-width="1.5" stroke-linecap="round" stroke-linejoin="round"/>
<path d="M9.16666 18.2917C9.16666 18.2917 6.66666 15 6.66666 10C6.66666 5.00004 9.16666 1.70837 9.16666 1.70837" stroke="#838383" stroke-width="1.5" stroke-linecap="round" stroke-linejoin="round"/>
<path d="M2.19167 12.9167H17.8083" stroke="#838383" stroke-width="1.5" stroke-linecap="round" stroke-linejoin="round"/>
<path d="M2.19167 7.08337H17.8083" stroke="#838383" stroke-width="1.5" stroke-linecap="round" stroke-linejoin="round"/>
</svg>
